<svg width="40" height="41" viewBox="0 0 40 41" fill="none" xmlns="http://www.w3.org/2000/svg">
<path d="M14.9997 3.83325H24.9997C33.333 3.83325 36.6663 7.16659 36.6663 15.4999V25.4999C36.6663 33.8333 33.333 37.1666 24.9997 37.1666H14.9997C6.66634 37.1666 3.33301 33.8333 3.33301 25.4999V15.4999C3.33301 7.16659 6.66634 3.83325 14.9997 3.83325Z" stroke="#E5CB9B" stroke-width="2" stroke-linecap="round" stroke-linejoin="round"/>
<path d="M14.2832 25.95L25.1832 15.05" stroke="#E5CB9B" stroke-width="2" stroke-linecap="round" stroke-linejoin="round"/>
<path d="M14.967 17.7833C16.0992 17.7833 17.017 16.8656 17.017 15.7334C17.017 14.6012 16.0992 13.6833 14.967 13.6833C13.8348 13.6833 12.917 14.6012 12.917 15.7334C12.917 16.8656 13.8348 17.7833 14.967 17.7833Z" stroke="#E5CB9B" stroke-width="2" stroke-linecap="round" stroke-linejoin="round"/>
<path d="M25.8664 27.3168C26.9986 27.3168 27.9164 26.3989 27.9164 25.2668C27.9164 24.1346 26.9986 23.2168 25.8664 23.2168C24.7342 23.2168 23.8164 24.1346 23.8164 25.2668C23.8164 26.3989 24.7342 27.3168 25.8664 27.3168Z" stroke="#E5CB9B" stroke-width="2" stroke-linecap="round" stroke-linejoin="round"/>
</svg>
