<svg width="16" height="11" viewBox="0 0 16 11" fill="none" xmlns="http://www.w3.org/2000/svg">
<path d="M9.17 8.712C10.164 7.718 10.654 6.514 10.654 5.1C10.654 3.686 10.164 2.482 9.17 1.502C8.19 0.508 6.986 0.0179992 5.572 0.0179992C4.158 0.0179992 2.954 0.508 1.96 1.502C0.98 2.482 0.49 3.686 0.49 5.1C0.49 6.514 0.98 7.718 1.96 8.712C2.954 9.692 4.158 10.182 5.572 10.182C6.986 10.182 8.19 9.692 9.17 8.712ZM3.094 7.62C2.436 6.948 2.1 6.108 2.1 5.1C2.1 4.092 2.436 3.252 3.094 2.594C3.766 1.922 4.592 1.586 5.572 1.586C6.552 1.586 7.378 1.922 8.036 2.594C8.708 3.252 9.044 4.092 9.044 5.1C9.044 6.108 8.708 6.948 8.036 7.62C7.378 8.278 6.552 8.614 5.572 8.614C4.592 8.614 3.766 8.278 3.094 7.62ZM13.6766 3H12.1646V10H13.6766V6.472C13.6766 5.758 13.8866 5.24 14.3206 4.932C14.7546 4.61 15.2586 4.47 15.8326 4.512V2.874C14.7826 2.874 14.0546 3.308 13.6766 4.176V3Z" fill="#C9C8CC"/>
</svg>
